<svg width="20" height="20" viewBox="0 0 20 20" fill="none" xmlns="http://www.w3.org/2000/svg">
<g opacity="0.5" clip-path="url(#clip0)">
<path d="M15.2741 9.82242H16.6692C16.9846 9.82242 17.2412 9.56582 17.2412 9.25043V7.85535C17.2412 7.53996 16.9846 7.28336 16.6692 7.28336H15.2741C14.9587 7.28336 14.7021 7.53996 14.7021 7.85535V9.25043C14.7021 9.56582 14.9587 9.82242 15.2741 9.82242ZM15.288 7.8693H16.6552V9.23648H15.288V7.8693ZM15.2741 13.5334H16.6692C16.9846 13.5334 17.2412 13.2768 17.2412 12.9614V11.5663C17.2412 11.2509 16.9846 10.9943 16.6692 10.9943H15.2741C14.9587 10.9943 14.7021 11.2509 14.7021 11.5663V12.9614C14.7021 13.2768 14.9587 13.5334 15.2741 13.5334ZM15.288 11.5802H16.6552V12.9474H15.288V11.5802ZM11.293 9.82242H12.6881C13.0035 9.82242 13.2601 9.56582 13.2601 9.25043V7.85535C13.2601 7.53996 13.0035 7.28336 12.6881 7.28336H11.293C10.9776 7.28336 10.721 7.53996 10.721 7.85535V9.25043C10.721 9.56582 10.9776 9.82242 11.293 9.82242ZM11.307 7.8693H12.6741V9.23648H11.307V7.8693ZM4.72591 14.5312H3.33083C3.01544 14.5312 2.75884 14.7879 2.75884 15.1032V16.4983C2.75884 16.8137 3.01544 17.0703 3.33083 17.0703H4.72591C5.0413 17.0703 5.2979 16.8137 5.2979 16.4983V15.1032C5.2979 14.7879 5.0413 14.5312 4.72591 14.5312ZM4.71196 16.4844H3.34478V15.1172H4.71196V16.4844ZM4.72591 7.28336H3.33083C3.01544 7.28336 2.75884 7.53996 2.75884 7.85535V9.25043C2.75884 9.56582 3.01544 9.82242 3.33083 9.82242H4.72591C5.0413 9.82242 5.2979 9.56582 5.2979 9.25043V7.85535C5.2979 7.53992 5.0413 7.28336 4.72591 7.28336ZM4.71196 9.23648H3.34478V7.8693H4.71196V9.23648ZM11.293 13.4464H12.6881C13.0035 13.4464 13.2601 13.1898 13.2601 12.8744V11.4793C13.2601 11.1639 13.0035 10.9073 12.6881 10.9073H11.293C10.9776 10.9073 10.721 11.1639 10.721 11.4793V12.8744C10.721 13.1898 10.9776 13.4464 11.293 13.4464ZM11.307 11.4932H12.6741V12.8604H11.307V11.4932ZM17.5321 1.33883H16.2796V0.890898C16.2796 0.399648 15.8799 0 15.3887 0H15.2541C14.7629 0 14.3633 0.399648 14.3633 0.890898V1.33883H5.63673V0.890898C5.63673 0.399648 5.23708 0 4.74583 0H4.6113C4.12005 0 3.7204 0.399648 3.7204 0.890898V1.33883H2.46786C1.65908 1.33883 1.00107 1.99684 1.00107 2.80562V18.5352C1.00107 19.3429 1.65818 20 2.46591 20H17.5342C18.3419 20 18.999 19.3429 18.999 18.5352V2.80562C18.999 1.99684 18.341 1.33883 17.5321 1.33883ZM14.9492 0.890898C14.9492 0.722734 15.086 0.585938 15.2542 0.585938H15.3887C15.5569 0.585938 15.6937 0.722734 15.6937 0.890898V1.33883H14.9492V0.890898ZM4.30638 0.890898C4.30638 0.722734 4.44317 0.585938 4.61134 0.585938H4.74587C4.91403 0.585938 5.05083 0.722734 5.05083 0.890898V1.33883H4.30642V0.890898H4.30638ZM18.413 18.5352C18.413 19.0198 18.0188 19.4141 17.5341 19.4141H2.46587C1.98122 19.4141 1.58697 19.0198 1.58697 18.5352V18.5333C1.83243 18.7183 2.13755 18.8281 2.46786 18.8281H14.3461C14.7379 18.8281 15.1063 18.6755 15.3833 18.3985L18.413 15.3687V18.5352ZM15.0843 17.8688C15.1073 17.774 15.1198 17.6751 15.1198 17.5734V15.6177C15.1198 15.249 15.4198 14.9489 15.7886 14.9489H17.7442C17.846 14.9489 17.9448 14.9364 18.0396 14.9135L15.0843 17.8688ZM18.413 5.52555H5.9297C5.7679 5.52555 5.63673 5.65672 5.63673 5.81852C5.63673 5.98031 5.7679 6.11148 5.9297 6.11148H18.413V13.6942C18.413 14.063 18.113 14.363 17.7442 14.363H15.7886C15.0968 14.363 14.5339 14.9259 14.5339 15.6178V17.5734C14.5339 17.9422 14.2338 18.2422 13.8651 18.2422H2.46786C1.98216 18.2422 1.58701 17.8471 1.58701 17.3613V6.11148H4.75782C4.91962 6.11148 5.05079 5.98031 5.05079 5.81852C5.05079 5.65672 4.91962 5.52555 4.75782 5.52555H1.58697V2.80562C1.58697 2.31992 1.98212 1.92477 2.46782 1.92477H3.7204V2.78617C3.7204 3.27742 4.12005 3.67707 4.6113 3.67707C4.7731 3.67707 4.90427 3.5459 4.90427 3.3841C4.90427 3.2223 4.7731 3.09113 4.6113 3.09113C4.44314 3.09113 4.30634 2.95434 4.30634 2.78617V1.92477H14.3633V2.78617C14.3633 3.27742 14.7629 3.67707 15.2542 3.67707C15.416 3.67707 15.5471 3.5459 15.5471 3.3841C15.5471 3.2223 15.416 3.09113 15.2542 3.09113C15.086 3.09113 14.9492 2.95434 14.9492 2.78617V1.92477H17.5322C18.0179 1.92477 18.413 2.31992 18.413 2.80562V5.52555ZM4.72591 10.9073H3.33083C3.01544 10.9073 2.75884 11.1639 2.75884 11.4793V12.8744C2.75884 13.1898 3.01544 13.4464 3.33083 13.4464H4.72591C5.0413 13.4464 5.2979 13.1898 5.2979 12.8744V11.4793C5.2979 11.1639 5.0413 10.9073 4.72591 10.9073ZM4.71196 12.8604H3.34478V11.4932H4.71196V12.8604ZM7.31192 9.82242H8.707C9.02239 9.82242 9.27899 9.56582 9.27899 9.25043V7.85535C9.27899 7.53996 9.02239 7.28336 8.707 7.28336H7.31192C6.99653 7.28336 6.73993 7.53996 6.73993 7.85535V9.25043C6.73993 9.56582 6.99653 9.82242 7.31192 9.82242ZM7.32587 7.8693H8.69305V9.23648H7.32587V7.8693ZM11.3066 16.4844C11.2993 16.329 11.1711 16.2054 11.0139 16.2054C10.8522 16.2054 10.721 16.3365 10.721 16.4983C10.721 16.8137 10.9776 17.0703 11.293 17.0703H12.688C13.0034 17.0703 13.26 16.8137 13.26 16.4983V15.1032C13.26 14.7879 13.0034 14.5312 12.688 14.5312H11.293C10.9776 14.5312 10.721 14.7879 10.721 15.1032V15.5056C10.721 15.6674 10.8522 15.7986 11.0139 15.7986C11.1757 15.7986 11.3069 15.6674 11.3069 15.5056V15.1172H12.6741V16.4844H11.3066ZM7.31192 13.4464H8.707C9.02239 13.4464 9.27899 13.1898 9.27899 12.8744V11.4793C9.27899 11.1639 9.02239 10.9073 8.707 10.9073H7.31192C6.99653 10.9073 6.73993 11.1639 6.73993 11.4793V12.8744C6.73993 13.1898 6.99653 13.4464 7.31192 13.4464ZM7.32587 11.4932H8.69305V12.8604H7.32587V11.4932ZM7.31192 17.0703H8.707C9.02239 17.0703 9.27899 16.8137 9.27899 16.4983V15.1032C9.27899 14.7879 9.02239 14.5312 8.707 14.5312H7.31192C6.99653 14.5312 6.73993 14.7879 6.73993 15.1032V16.4983C6.73993 16.8137 6.99653 17.0703 7.31192 17.0703ZM7.32587 15.1172H8.69305V16.4844H7.32587V15.1172Z" fill="#323232"/>
</g>
<defs>
<clipPath id="clip0">
<rect width="20" height="20" fill="white"/>
</clipPath>
</defs>
</svg>
