<svg width="18" height="18" viewBox="0 0 18 18" fill="none" xmlns="http://www.w3.org/2000/svg">
<path d="M12.6311 5.78571H5.36886L9 8.89813L12.6311 5.78571Z" fill="#82C91E"/>
<path d="M9 9.64287C8.92325 9.64287 8.84901 9.6154 8.79079 9.56533L4.82143 6.16302V12.2143H13.1786V6.16302L9.20921 9.56533C9.15098 9.6154 9.07675 9.64287 9 9.64287Z" fill="#82C91E"/>
<path d="M9 0C4.02947 0 0 4.02947 0 9C0 13.9705 4.02947 18 9 18C13.9705 18 18 13.9705 18 9C17.9944 4.03183 13.9682 0.00565011 9 0ZM13.8214 12.5357C13.8214 12.7132 13.6775 12.8571 13.5 12.8571H4.5C4.32249 12.8571 4.17857 12.7132 4.17857 12.5357V5.46429C4.17857 5.28678 4.32249 5.14286 4.5 5.14286H13.5C13.6775 5.14286 13.8214 5.28678 13.8214 5.46429V12.5357Z" fill="#82C91E"/>
</svg>
