<svg width="25" height="26" viewBox="0 0 25 26" fill="none" xmlns="http://www.w3.org/2000/svg">
<g clip-path="url(#clip0)">
<path d="M12.7681 25.0519C19.4389 25.0519 24.8467 19.6442 24.8467 12.9733C24.8467 6.30247 19.4389 0.894684 12.7681 0.894684C6.09724 0.894684 0.689453 6.30247 0.689453 12.9733C0.689453 19.6442 6.09724 25.0519 12.7681 25.0519Z" fill="#3B5998"/>
<path d="M15.8048 13.4462H13.6495V21.3421H10.3841V13.4462H8.83105V10.6712H10.3841V8.8755C10.3841 7.59137 10.9941 5.58057 13.6786 5.58057L16.0974 5.59069V8.28425H14.3424C14.0546 8.28425 13.6498 8.42808 13.6498 9.04065V10.6738H16.0901L15.8048 13.4462Z" fill="white"/>
</g>
<defs>
<clipPath id="clip0">
<rect width="24.1573" height="24.1573" fill="white" transform="translate(0.689453 0.894684)"/>
</clipPath>
</defs>
</svg>
