<svg width="20" height="20" viewBox="0 0 20 20" fill="none" xmlns="http://www.w3.org/2000/svg">
<path d="M14.035 6.42857H5.96582L10.0004 9.88683L14.035 6.42857Z" fill="#82C91E"/>
<path d="M10.0003 10.7143C9.91501 10.7143 9.83252 10.6838 9.76782 10.6281L5.35742 6.84779V13.5714H14.6431V6.84779L10.2327 10.6281C10.168 10.6838 10.0856 10.7143 10.0003 10.7143Z" fill="#82C91E"/>
<path d="M10 0C4.47719 0 0 4.47719 0 10C0 15.5228 4.47719 20 10 20C15.5228 20 20 15.5228 20 10C19.9937 4.47981 15.5202 0.0062779 10 0ZM15.3571 13.9286C15.3571 14.1258 15.1972 14.2857 15 14.2857H5C4.80277 14.2857 4.64286 14.1258 4.64286 13.9286V6.07143C4.64286 5.8742 4.80277 5.71429 5 5.71429H15C15.1972 5.71429 15.3571 5.8742 15.3571 6.07143V13.9286Z" fill="#82C91E"/>
</svg>
