<svg width="20" height="20" viewBox="0 0 20 20" fill="none" xmlns="http://www.w3.org/2000/svg">
<circle cx="10" cy="10" r="10" fill="#82C91E"/>
<g clip-path="url(#clip0)">
<path d="M10.2276 5C8.1399 5 6.44141 6.6985 6.44141 8.78622C6.44141 11.3772 9.82972 15.1808 9.97398 15.3414C10.1095 15.4924 10.3461 15.4921 10.4813 15.3414C10.6256 15.1808 14.0139 11.3772 14.0139 8.78622C14.0138 6.6985 12.3154 5 10.2276 5ZM10.2276 10.6912C9.17725 10.6912 8.32271 9.83662 8.32271 8.78622C8.32271 7.73582 9.17727 6.88129 10.2276 6.88129C11.278 6.88129 12.1326 7.73584 12.1326 8.78624C12.1326 9.83664 11.278 10.6912 10.2276 10.6912Z" fill="white"/>
</g>
<defs>
<clipPath id="clip0">
<rect width="10.4545" height="10.4545" fill="white" transform="translate(5 5)"/>
</clipPath>
</defs>
</svg>
