<svg width="20" height="20" viewBox="0 0 20 20" fill="none" xmlns="http://www.w3.org/2000/svg">
<path d="M10 20C15.5228 20 20 15.5228 20 10C20 4.47715 15.5228 0 10 0C4.47715 0 0 4.47715 0 10C0 15.5228 4.47715 20 10 20Z" fill="#82C91E"/>
<path d="M15 12.0675C13.9213 12.0675 12.8925 11.8325 11.9438 11.3688C11.795 11.2975 11.6225 11.2862 11.465 11.34C11.3075 11.395 11.1788 11.51 11.1063 11.6587L10.6562 12.59C9.30625 11.815 8.18625 10.6937 7.41 9.34375L8.3425 8.89375C8.4925 8.82125 8.60625 8.6925 8.66125 8.535C8.715 8.3775 8.705 8.205 8.6325 8.05625C8.1675 7.10875 7.9325 6.08 7.9325 5C7.9325 4.655 7.6525 4.375 7.3075 4.375H5C4.655 4.375 4.375 4.655 4.375 5C4.375 10.8587 9.14125 15.625 15 15.625C15.345 15.625 15.625 15.345 15.625 15V12.6925C15.625 12.3475 15.345 12.0675 15 12.0675Z" fill="#FAFAFA"/>
</svg>
