<svg width="25" height="25" viewBox="0 0 25 25" fill="none" xmlns="http://www.w3.org/2000/svg">
<g clip-path="url(#clip0)">
<path d="M12.4234 24.1573C19.0942 24.1573 24.502 18.7495 24.502 12.0786C24.502 5.40779 19.0942 0 12.4234 0C5.75251 0 0.344727 5.40779 0.344727 12.0786C0.344727 18.7495 5.75251 24.1573 12.4234 24.1573Z" fill="#EF72AD"/>
<path d="M12.4232 0C11.8892 0 11.3634 0.0351035 10.8477 0.102244C16.7741 0.874285 21.3508 5.94179 21.3508 12.0786C21.3508 18.2155 16.7741 23.283 10.8477 24.055C11.3634 24.1222 11.8892 24.1573 12.4232 24.1573C19.094 24.1573 24.5018 18.7494 24.5018 12.0786C24.5018 5.40783 19.094 0 12.4232 0Z" fill="#EE539E"/>
<path d="M16.8986 4.33258H7.94906C6.14524 4.33258 4.67773 5.80009 4.67773 7.60391V16.5535C4.67773 18.3573 6.14524 19.8248 7.94906 19.8248H16.8987C18.7025 19.8248 20.17 18.3573 20.17 16.5535V7.60391C20.1699 5.80009 18.7024 4.33258 16.8986 4.33258ZM19.3821 16.5534C19.3821 17.9229 18.268 19.037 16.8986 19.037H7.94906C6.5796 19.037 5.46549 17.9229 5.46549 16.5534V7.60391C5.46549 6.23445 6.5796 5.12033 7.94906 5.12033H16.8987C18.2681 5.12033 19.3822 6.23445 19.3822 7.60391V16.5534H19.3821Z" fill="white"/>
<path d="M12.4235 8.00864C10.1793 8.00864 8.35352 9.8344 8.35352 12.0786C8.35352 14.3228 10.1793 16.1486 12.4235 16.1486C14.6677 16.1486 16.4935 14.3228 16.4935 12.0786C16.4935 9.8344 14.6677 8.00864 12.4235 8.00864ZM12.4235 15.3609C10.6137 15.3609 9.14127 13.8884 9.14127 12.0786C9.14127 10.2689 10.6137 8.79639 12.4235 8.79639C14.2333 8.79639 15.7057 10.2689 15.7057 12.0786C15.7057 13.8884 14.2333 15.3609 12.4235 15.3609Z" fill="white"/>
<path d="M16.6255 8.40254C17.2056 8.40254 17.6758 7.93229 17.6758 7.35222C17.6758 6.77214 17.2056 6.3019 16.6255 6.3019C16.0454 6.3019 15.5752 6.77214 15.5752 7.35222C15.5752 7.93229 16.0454 8.40254 16.6255 8.40254Z" fill="white"/>
</g>
<defs>
<clipPath id="clip0">
<rect width="24.1573" height="24.1573" fill="white" transform="translate(0.344727)"/>
</clipPath>
</defs>
</svg>
