<svg width="10" height="10" viewBox="0 0 10 10" fill="none" xmlns="http://www.w3.org/2000/svg">
<g opacity="0.9">
<path d="M5.00004 0C3.00307 0 1.37842 1.62465 1.37842 3.6216C1.37842 6.09988 4.61941 9.73815 4.7574 9.89182C4.88701 10.0362 5.1133 10.0359 5.24268 9.89182C5.38066 9.73815 8.62166 6.09988 8.62166 3.6216C8.62162 1.62465 6.99699 0 5.00004 0ZM5.00004 5.44373C3.99531 5.44373 3.17793 4.62633 3.17793 3.6216C3.17793 2.61688 3.99533 1.79949 5.00004 1.79949C6.00475 1.79949 6.82213 2.61689 6.82213 3.62162C6.82213 4.62635 6.00475 5.44373 5.00004 5.44373Z" fill="#323232"/>
</g>
</svg>
