<svg width="16" height="16" viewBox="0 0 16 16" fill="none" xmlns="http://www.w3.org/2000/svg">
<g opacity="0.3" clip-path="url(#clip0)">
<path d="M15.8491 15.1295L11.7182 11.0646C12.7999 9.8893 13.4646 8.33495 13.4646 6.62455C13.4641 2.96568 10.4504 0 6.73249 0C3.01462 0 0.000915527 2.96568 0.000915527 6.62455C0.000915527 10.2834 3.01462 13.2491 6.73249 13.2491C8.33887 13.2491 9.81221 12.6935 10.9695 11.7697L15.1165 15.8507C15.3185 16.0498 15.6466 16.0498 15.8486 15.8507C16.0512 15.6517 16.0512 15.3286 15.8491 15.1295ZM6.73249 12.2299C3.58677 12.2299 1.03666 9.72029 1.03666 6.62455C1.03666 3.52881 3.58677 1.01923 6.73249 1.01923C9.87824 1.01923 12.4283 3.52881 12.4283 6.62455C12.4283 9.72029 9.87824 12.2299 6.73249 12.2299Z" fill="#323232"/>
</g>
<defs>
<clipPath id="clip0">
<rect width="16" height="16" fill="white"/>
</clipPath>
</defs>
</svg>
