<svg width="50" height="50" viewBox="0 0 50 50" fill="none" xmlns="http://www.w3.org/2000/svg">
<circle cx="25" cy="25" r="25" fill="#82C91E"/>
<g clip-path="url(#clip0)">
<path d="M15.6541 23.3458C15.461 23.861 15.6118 24.4422 16.0315 24.7982C16.8266 25.5939 18.4619 28.4662 19.2713 30.4903C19.8237 31.8708 21.0366 33.2257 21.9568 34.1196C22.3528 34.5093 22.5751 35.0421 22.574 35.5979V35.7503C22.574 36.4405 23.1334 37 23.8237 37H30.4882C31.1785 37 31.7379 36.4405 31.7379 35.7503V34.4706C31.7341 34.3648 31.7743 34.262 31.8491 34.1871C33.3865 32.7812 33.4041 30.4344 33.4041 30.3352V23.7411C33.4195 22.8491 32.747 22.0949 31.8592 22.0088C31.5255 21.9868 31.193 22.066 30.9049 22.2357V21.5879C30.9083 20.9877 30.5868 20.4326 30.0643 20.1369C29.5421 19.8411 28.9006 19.8511 28.3877 20.163C28.3343 19.6011 27.9968 19.1057 27.4936 18.8504C26.9903 18.5951 26.3913 18.6151 25.9063 18.9038V18.2139C26.9401 17.6272 27.577 16.5285 27.5726 15.3398C27.5726 13.4994 26.0805 12.0076 24.2401 12.0076C22.3997 12.0076 20.9079 13.4994 20.9079 15.3398C20.9035 16.5285 21.5403 17.6272 22.574 18.2139V24.9202C22.5858 25.412 22.5189 25.9022 22.3757 26.3728C22.3311 26.5118 22.2172 26.6178 22.0754 26.6527C21.9419 26.6864 21.8004 26.6493 21.7005 26.5543C21.3752 26.2441 21.0861 25.8978 20.8392 25.5222C20.1164 24.4408 18.2975 22.421 17.159 22.421C16.5194 22.4077 15.9312 22.7692 15.6541 23.3458ZM21.7409 15.3398C21.7409 13.9595 22.8598 12.8406 24.2401 12.8406C25.6204 12.8406 26.7393 13.9595 26.7393 15.3398C26.7433 16.0526 26.4398 16.7323 25.9063 17.2052V15.3398C25.9063 14.4196 25.1603 13.6737 24.2401 13.6737C23.3199 13.6737 22.574 14.4196 22.574 15.3398V17.2052C22.0407 16.7323 21.7369 16.0526 21.7409 15.3398ZM20.1448 25.9846C20.4272 26.4128 20.7574 26.8075 21.129 27.1612C21.4355 27.4511 21.8689 27.5641 22.2779 27.4608C22.6947 27.3569 23.0293 27.0468 23.1651 26.6393C23.3375 26.083 23.4193 25.5025 23.4071 24.9202V15.3398C23.4071 14.8797 23.78 14.5068 24.2401 14.5068C24.7002 14.5068 25.0732 14.8797 25.0732 15.3398V24.0871C25.0732 24.3173 25.2597 24.5038 25.4898 24.5038C25.7198 24.5038 25.9063 24.3173 25.9063 24.0871V20.3384C25.9063 19.8783 26.2794 19.5054 26.7393 19.5054C27.1994 19.5054 27.5726 19.8783 27.5726 20.3384V24.0871C27.5726 24.3173 27.7591 24.5038 27.989 24.5038C28.2192 24.5038 28.4056 24.3173 28.4056 24.0871V21.5879C28.4056 21.1278 28.7786 20.7549 29.2387 20.7549C29.6988 20.7549 30.0718 21.1278 30.0718 21.5879V24.5038C30.0718 24.7337 30.2583 24.9202 30.4882 24.9202C30.7184 24.9202 30.9049 24.7337 30.9049 24.5038V23.6707C30.9043 23.4497 30.9924 23.2377 31.1493 23.0821C31.3211 22.9118 31.5577 22.8235 31.7991 22.8397C32.2491 22.8985 32.582 23.2874 32.571 23.7411V30.3352C32.571 30.3556 32.5498 32.418 31.2864 33.5727C31.0395 33.8056 30.901 34.1312 30.9049 34.4706V35.7503C30.9049 35.9804 30.7184 36.1669 30.4882 36.1669H23.8237C23.5935 36.1669 23.4071 35.9804 23.4071 35.7503V35.5979C23.4076 34.8171 23.094 34.0689 22.537 33.5218C21.8313 32.8367 20.5692 31.4907 20.0452 30.1804C19.1879 28.0385 17.4919 25.0806 16.6205 24.2092C16.4222 24.0111 16.3558 23.8276 16.4233 23.6644C16.5743 23.4028 16.8569 23.2451 17.159 23.2541C17.7251 23.2541 19.26 24.6575 20.1448 25.9846Z" fill="white"/>
<path d="M31.3213 29.9188C31.5514 29.9188 31.7379 29.7323 31.7379 29.5022V27.003C31.7379 26.773 31.5514 26.5865 31.3213 26.5865C31.0913 26.5865 30.9048 26.773 30.9048 27.003V29.5022C30.9048 29.7323 31.0913 29.9188 31.3213 29.9188Z" fill="white"/>
<path d="M30.9048 32.4181C31.0152 32.4181 31.1212 32.3743 31.1992 32.2961C31.5161 32.0028 31.7089 31.5993 31.7379 31.1684C31.7375 30.9434 31.5564 30.7606 31.3314 30.7579C31.1039 30.7535 30.9146 30.9316 30.9048 31.1589C30.8736 31.3703 30.7694 31.5643 30.6102 31.7071C30.4913 31.8263 30.4556 32.0053 30.52 32.1609C30.5845 32.3167 30.7363 32.4181 30.9048 32.4181Z" fill="white"/>
<path d="M24.6567 35.3338H25.0732C25.3033 35.3338 25.4898 35.1473 25.4898 34.9172C25.4898 34.6872 25.3033 34.5007 25.0732 34.5007H24.6567C24.4266 34.5007 24.2401 34.6872 24.2401 34.9172C24.2401 35.1473 24.4266 35.3338 24.6567 35.3338Z" fill="white"/>
<path d="M26.7393 35.3338H29.6551C29.8853 35.3338 30.0718 35.1473 30.0718 34.9172C30.0718 34.6872 29.8853 34.5007 29.6551 34.5007H26.7393C26.5094 34.5007 26.3229 34.6872 26.3229 34.9172C26.3229 35.1473 26.5094 35.3338 26.7393 35.3338Z" fill="white"/>
<path d="M20.9079 18.8967C21.0741 18.8967 21.2244 18.7982 21.2904 18.6456C21.3563 18.4931 21.3254 18.3159 21.2116 18.1949C19.7684 16.6694 19.69 14.3072 21.0291 12.6895C21.1281 12.5752 21.1575 12.4164 21.106 12.2743C21.0543 12.1323 20.9298 12.0293 20.7805 12.0053C20.6312 11.9813 20.4807 12.04 20.3871 12.1588C18.7809 14.0999 18.8739 16.9341 20.6043 18.7656C20.683 18.8493 20.7929 18.8967 20.9079 18.8967Z" fill="white"/>
<path d="M28.1278 17.7933C28.226 17.8436 28.3404 17.853 28.4455 17.819C28.5507 17.7851 28.6381 17.7109 28.6884 17.6125C29.5991 15.8392 29.3649 13.6937 28.0931 12.1588C27.9997 12.04 27.8491 11.9813 27.6998 12.0053C27.5506 12.0293 27.4261 12.1323 27.3745 12.2743C27.3228 12.4164 27.3521 12.5752 27.4513 12.6895C28.5111 13.9681 28.7061 15.7555 27.9474 17.2327C27.8424 17.4373 27.9232 17.6882 28.1278 17.7933Z" fill="white"/>
</g>
<defs>
<clipPath id="clip0">
<rect width="25" height="25" fill="white" transform="translate(12 12)"/>
</clipPath>
</defs>
</svg>
