<svg width="25" height="26" viewBox="0 0 25 26" fill="none" xmlns="http://www.w3.org/2000/svg">
<g clip-path="url(#clip0)">
<path d="M12.0786 25.0519C18.7495 25.0519 24.1573 19.6442 24.1573 12.9733C24.1573 6.30247 18.7495 0.894684 12.0786 0.894684C5.40779 0.894684 0 6.30247 0 12.9733C0 19.6442 5.40779 25.0519 12.0786 25.0519Z" fill="#4D76A1"/>
<path fill-rule="evenodd" clip-rule="evenodd" d="M11.6221 18.2709H12.5701C12.5701 18.2709 12.8565 18.2395 13.0027 18.0819C13.1372 17.9372 13.1329 17.6654 13.1329 17.6654C13.1329 17.6654 13.1144 16.3934 13.7048 16.2061C14.2868 16.0215 15.0341 17.4355 15.8263 17.9792C16.4253 18.3906 16.8804 18.3004 16.8804 18.3004L18.9985 18.2709C18.9985 18.2709 20.1065 18.2027 19.5811 17.3315C19.5381 17.2602 19.2752 16.6871 18.0063 15.5093C16.6783 14.2766 16.8561 14.476 18.4559 12.3438C19.4302 11.0452 19.8197 10.2524 19.698 9.91289C19.582 9.58949 18.8654 9.67497 18.8654 9.67497L16.4806 9.68982C16.4806 9.68982 16.3038 9.66571 16.1727 9.74408C16.0446 9.82095 15.9621 10.0001 15.9621 10.0001C15.9621 10.0001 15.5847 11.005 15.0813 11.8595C14.0194 13.6628 13.5948 13.7579 13.4212 13.646C13.0175 13.385 13.1183 12.5976 13.1183 12.0382C13.1183 10.2908 13.3833 9.56214 12.6022 9.37353C12.3429 9.31087 12.1522 9.26953 11.4892 9.26286C10.6383 9.25403 9.91809 9.26544 9.51028 9.46525C9.23899 9.5981 9.0297 9.89416 9.15717 9.91117C9.31478 9.93227 9.67177 10.0074 9.86103 10.2651C10.1054 10.5976 10.0968 11.3443 10.0968 11.3443C10.0968 11.3443 10.2372 13.4014 9.76887 13.657C9.44741 13.8322 9.00645 13.4744 8.05972 11.8384C7.57462 11.0004 7.20837 10.0742 7.20837 10.0742C7.20837 10.0742 7.13775 9.90105 7.01179 9.80846C6.85892 9.69628 6.64533 9.66054 6.64533 9.66054L4.37916 9.6754C4.37916 9.6754 4.03896 9.68487 3.91408 9.83279C3.80298 9.96435 3.90525 10.2365 3.90525 10.2365C3.90525 10.2365 5.67943 14.3873 7.6883 16.4791C9.53031 18.3969 11.6221 18.2709 11.6221 18.2709Z" fill="white"/>
</g>
<defs>
<clipPath id="clip0">
<rect width="24.1573" height="24.1573" fill="white" transform="translate(0 0.894684)"/>
</clipPath>
</defs>
</svg>
