<svg width="30" height="30" viewBox="0 0 30 30" fill="none" xmlns="http://www.w3.org/2000/svg">
<g clip-path="url(#clip0)">
<path d="M28.4286 12.0072C28.4469 11.9689 28.4609 11.9289 28.4705 11.8875C28.7937 10.4931 28.1366 9.55676 27.5705 9.11319C27.4421 8.06743 26.4563 7.39841 25.6495 7.07546C25.5674 6.09035 25.1934 5.29041 24.5344 4.69326C23.4559 3.71617 21.9108 3.58433 21.1552 3.58433C21.1474 3.58433 21.1399 3.58433 21.1321 3.58433C20.396 2.32617 18.7117 2.26804 17.7296 2.45046C17.1535 2.25362 16.5726 2.09706 16.001 1.98422C15.6827 1.92151 15.373 2.12842 15.3101 2.44725C15.2471 2.76585 15.4545 3.0753 15.7733 3.13824C16.3407 3.2504 16.9198 3.41038 17.4936 3.61386C17.6 3.65185 17.7149 3.65803 17.8248 3.63217C17.8445 3.62759 19.7856 3.18631 20.2113 4.3845C20.3017 4.63833 20.5539 4.79809 20.8222 4.77291C20.8407 4.77108 22.6933 4.60835 23.748 5.56828C24.119 5.9061 24.3481 6.34189 24.4417 6.89052C23.6482 6.92852 22.4104 7.20729 21.7661 8.48308C21.6196 8.77307 21.7357 9.12669 22.0257 9.2734C22.1108 9.3162 22.2014 9.33658 22.2905 9.33658C22.5054 9.33658 22.7125 9.21847 22.816 9.01362C23.3584 7.94017 24.7063 8.04797 24.951 8.07727C25.1684 8.14868 26.4582 8.6085 26.4062 9.39677C26.3909 9.63023 26.5154 9.85064 26.7234 9.95799C26.7255 9.9589 26.9342 10.0763 27.1153 10.3228C27.3531 10.6465 27.4311 11.044 27.3483 11.5059L27.3087 11.5586C26.3957 11.6588 25.0226 12.2333 24.8352 13.9316C24.7997 14.2545 25.0325 14.5452 25.3554 14.5809C25.3774 14.5832 25.3991 14.5844 25.4206 14.5844C25.7166 14.5844 25.9713 14.3617 26.0045 14.0607C26.1233 12.9845 27.0475 12.7705 27.446 12.7284C30.0234 14.6189 28.2041 19.0279 28.0837 19.3105C27.4456 20.5305 26.6447 21.1546 25.6408 21.2116C25.2105 20.852 24.084 20.0526 22.1151 19.5808C21.7991 19.5051 21.4816 19.6999 21.4058 20.0157C21.3303 20.3318 21.5249 20.6493 21.8409 20.7248C23.5232 21.1278 24.4836 21.79 24.8379 22.0747C24.8333 22.2361 24.8121 22.3956 24.7729 22.5506C24.3545 24.2127 22.1048 25.0845 19.7579 24.4935C19.3695 24.3956 18.9932 24.2608 18.6396 24.0925C18.4656 24.0097 18.2622 24.0175 18.0948 24.1131C17.9278 24.2086 17.8179 24.3803 17.801 24.5721C17.7337 25.3335 17.7664 26.0671 17.8978 26.7606L16.3533 27.0174C16.2874 26.7835 16.2212 26.51 16.1496 26.2127C15.8044 24.7833 15.3059 22.7213 13.8402 21.0294C15.0603 20.7323 16.2343 20.5362 17.3407 20.4453C17.6646 20.4188 17.9056 20.1347 17.8788 19.8111C17.8522 19.4872 17.568 19.2467 17.2446 19.273C15.7822 19.3929 14.2144 19.6854 12.5838 20.1421C11.089 20.3444 10.0421 20.2634 9.92494 20.2531C7.3752 19.8699 6.66315 18.3293 6.82886 17.1247C6.85541 16.9318 6.78469 16.7381 6.64003 16.6077C6.49538 16.4772 6.29579 16.4269 6.10651 16.4731L5.6801 16.5775C4.93647 16.5406 3.07773 16.2527 2.24116 15.2786C1.8777 14.8551 1.73854 14.3438 1.81613 13.7153C1.84589 13.4727 1.72275 13.2369 1.50669 13.1232C1.50417 13.1218 1.25377 12.971 1.1922 12.7052C1.11896 12.3887 1.33136 12.0097 1.52248 11.7476C1.63806 11.589 1.6669 11.383 1.59938 11.1988C1.5948 11.1864 1.16107 9.9351 1.65637 8.89644C1.93195 8.31851 2.4602 7.89233 3.22673 7.63004C3.44874 7.55405 3.60392 7.35744 3.62223 7.12352C3.62292 7.11597 3.69776 6.37005 4.24113 5.96493C4.61649 5.68523 5.15803 5.61359 5.85039 5.75207C6.0074 5.78319 6.17014 5.74955 6.30152 5.65823C6.43289 5.5669 6.52147 5.42614 6.54665 5.26798C6.54871 5.25517 6.81215 4.03111 9.10714 3.98762C9.45527 4.46301 10.2234 5.71201 9.65348 6.83101C9.50608 7.12055 9.62144 7.47485 9.91074 7.62225C9.99635 7.66574 10.0874 7.68634 10.1772 7.68634C10.3914 7.68634 10.5981 7.56893 10.702 7.36499C10.9139 6.94866 11.0114 6.53118 11.0316 6.12812C11.349 5.99308 11.8434 5.84797 12.238 5.96538C12.4946 6.04137 12.6919 6.22768 12.8413 6.53438C12.9432 6.74358 13.1526 6.86512 13.3707 6.86512C13.457 6.86512 13.5449 6.84589 13.628 6.80538C13.9201 6.66324 14.0414 6.31099 13.899 6.01894C13.6053 5.41653 13.1469 5.00797 12.5729 4.83746C11.9615 4.65595 11.3394 4.77177 10.8791 4.92695C10.7256 4.4019 10.4841 3.94574 10.2717 3.60997C10.5486 3.48935 10.9226 3.34881 11.3831 3.22774C11.6974 3.14534 11.8853 2.82353 11.8027 2.50951C11.7201 2.19502 11.3982 2.00757 11.0842 2.08997C10.1545 2.33418 9.51753 2.65187 9.23509 2.80957C6.85266 2.81003 5.93164 3.85075 5.58489 4.52458C4.76389 4.44699 4.07244 4.61704 3.52404 5.03201C2.88478 5.51563 2.62294 6.21166 2.51765 6.6415C1.6138 7.02007 0.96767 7.60715 0.594365 8.38992C0.0526031 9.52632 0.261343 10.749 0.404393 11.3027C0.0445922 11.8833 -0.0760282 12.4434 0.0461944 12.9708C0.149649 13.418 0.405309 13.729 0.620686 13.9218C0.593449 14.7366 0.837437 15.4495 1.34853 16.0449C2.61561 17.52 5.14109 17.7262 5.63982 17.7528C5.76822 19.3932 7.017 21.0118 9.76815 21.419C9.77685 21.4204 9.78578 21.4215 9.7947 21.4224C9.81919 21.4249 10.1238 21.4547 10.6386 21.4547C11.106 21.4547 11.7473 21.43 12.5092 21.3375C14.132 22.8715 14.6353 24.9531 15.0059 26.4887C15.1409 27.0476 15.2574 27.5306 15.4094 27.9027C15.5007 28.1266 15.7179 28.2685 15.9537 28.2685C15.9857 28.2685 16.018 28.266 16.0505 28.2605L18.7121 27.8176C18.8779 27.7899 19.0239 27.6928 19.1134 27.5507C19.2029 27.4086 19.2274 27.2349 19.1804 27.0735C19.0353 26.5729 18.9566 26.0399 18.9449 25.4809C19.1175 25.5386 19.293 25.5897 19.4704 25.6343C20.8815 25.9895 22.3182 25.9124 23.5161 25.4169C24.7745 24.8964 25.626 23.9804 25.9137 22.8378C25.9533 22.6799 25.9809 22.5192 25.9974 22.3569C27.0015 22.2173 28.2103 21.6197 29.137 19.8347C29.1425 19.8241 29.1475 19.8136 29.1523 19.8029C29.1777 19.7459 29.7772 18.3849 29.9525 16.7253C30.169 14.6743 29.6435 13.0573 28.4286 12.0072Z" fill="#82C91E"/>
<path d="M13.6828 10.2786C13.689 10.3127 13.8419 11.1234 14.4043 11.919C14.5384 12.1088 14.7027 12.307 14.9014 12.4969C14.7957 13.1012 13.8714 13.4319 13.8497 13.4395C13.543 13.5441 13.3787 13.8771 13.4821 14.1843C13.565 14.4299 13.7939 14.5848 14.0394 14.5848C14.1019 14.5848 14.1653 14.5747 14.2276 14.5537C14.7714 14.3703 15.5615 13.9137 15.911 13.1799C16.3683 13.3864 16.9197 13.52 17.5818 13.52C17.624 13.52 17.6668 13.5194 17.7098 13.5184C18.0346 13.51 18.2911 13.2401 18.2827 12.9153C18.2747 12.5956 18.0131 12.342 17.6949 12.342C17.6899 12.342 17.6848 12.3422 17.6798 12.3422C15.3196 12.4015 14.8595 10.1678 14.8396 10.0653C14.7803 9.74692 14.4745 9.53589 14.1557 9.59449C13.8362 9.65262 13.6245 9.9591 13.6828 10.2786Z" fill="#82C91E"/>
<path d="M20.8544 15.4436C21.8757 13.659 21.4724 12.2791 20.9544 11.4356C20.4072 10.5451 19.6187 10.0758 19.5855 10.0564C19.306 9.89251 18.9483 9.98589 18.783 10.2642C18.6178 10.5428 18.71 10.903 18.9876 11.0697C18.9936 11.0731 19.5839 11.432 19.9721 12.0847C20.4621 12.9087 20.4152 13.8421 19.8331 14.8592C19.6718 15.1412 19.7697 15.5006 20.0517 15.6619C20.1437 15.7148 20.2442 15.7398 20.3431 15.7398C20.5475 15.7398 20.7457 15.6336 20.8544 15.4436Z" fill="#82C91E"/>
<path d="M27.0888 16.8184C27.3532 16.6296 27.4145 16.2622 27.2257 15.9979C27.0369 15.7335 26.6695 15.6722 26.4052 15.861C25.8316 16.2707 25.3097 16.4247 24.854 16.3185C24.1674 16.159 23.7774 15.4541 23.7682 15.4376C23.6172 15.1517 23.2635 15.0414 22.9763 15.1911C22.6881 15.3414 22.5764 15.6967 22.7268 15.9846C22.7499 16.0288 23.2596 16.9853 24.2775 17.3698C24.0953 18.0894 23.9792 19.3592 25.0426 20.2484C25.1527 20.3404 25.2864 20.3855 25.4196 20.3855C25.5878 20.3855 25.7547 20.3137 25.8712 20.1747C26.0795 19.9255 26.0465 19.5545 25.7973 19.346C25.1481 18.803 25.3306 17.9122 25.4585 17.509C25.9897 17.444 26.5354 17.2137 27.0888 16.8184Z" fill="#82C91E"/>
<path d="M9.7712 13.0408C9.73046 12.7185 9.43612 12.4908 9.11362 12.5313C8.79136 12.572 8.56316 12.8666 8.60413 13.1889C8.70621 13.9938 8.07473 14.5798 7.70073 14.8514C6.75934 14.3854 5.70511 14.5631 5.6527 14.5722C5.33387 14.6285 5.12169 14.932 5.17662 15.2511C5.23156 15.5701 5.53551 15.7846 5.8548 15.7313C5.86487 15.7294 6.85776 15.5704 7.45194 16.0854C7.79114 16.3795 7.95525 16.8713 7.93946 17.5472C7.9319 17.872 8.18917 18.1414 8.51395 18.1489C8.51853 18.1492 8.52311 18.1492 8.52791 18.1492C8.84629 18.1492 9.10813 17.8949 9.11568 17.5747C9.13422 16.7837 8.96576 16.1327 8.61443 15.631C9.19098 15.1524 9.92867 14.2827 9.7712 13.0408Z" fill="#82C91E"/>
<path d="M4.23963 9.95706C4.17577 10.11 4.07872 10.2468 3.95627 10.3713C3.63721 10.6966 3.23667 10.8174 3.22156 10.822C2.91028 10.9083 2.72649 11.2296 2.81072 11.5421C2.88144 11.8044 3.11902 11.9772 3.37812 11.9772C3.42893 11.9772 3.48043 11.9705 3.53192 11.9566C3.569 11.9465 4.30783 11.7403 4.87844 11.1058C5.2712 11.3974 5.73262 11.5496 6.23822 11.5496C6.37899 11.5496 6.52295 11.5379 6.66989 11.5141C7.3364 11.4068 7.83559 11.0925 7.89029 11.0571C8.16289 10.8804 8.24071 10.5162 8.06401 10.2436C7.88732 9.97102 7.52317 9.8932 7.25034 10.0699C7.24713 10.072 6.90473 10.2846 6.4829 10.3528C6.05901 10.4212 5.72438 10.3246 5.44858 10.0509C5.58179 9.54393 5.56577 8.97905 5.39846 8.36313C5.31354 8.04956 4.99059 7.8644 4.67679 7.94954C4.36322 8.03468 4.17806 8.35763 4.2632 8.6712C4.39824 9.16925 4.39458 9.58581 4.25061 9.93142C4.24695 9.93989 4.24329 9.94836 4.23963 9.95706Z" fill="#82C91E"/>
<path d="M18.0053 4.95331C17.0117 4.36393 15.8698 4.66835 15.8218 4.68162C15.5087 4.76791 15.3246 5.09178 15.4109 5.40489C15.497 5.718 15.8213 5.90179 16.1342 5.81596C16.1411 5.8139 16.846 5.63332 17.4049 5.96497C17.7375 6.16226 17.9671 6.52229 18.0877 7.03476C18.1516 7.30576 18.393 7.4884 18.6599 7.4884C18.7045 7.4884 18.7496 7.48314 18.795 7.47261C19.1113 7.39823 19.3074 7.08145 19.2328 6.76537C19.0362 5.92972 18.6233 5.31998 18.0053 4.95331Z" fill="#82C91E"/>
<path d="M15.8744 16.0439C15.4554 16.764 14.8497 17.1496 14.0747 17.1901C13.4522 17.2224 12.939 17.0217 12.9264 17.0164C12.6266 16.8937 12.2842 17.0366 12.1604 17.3359C12.0361 17.6362 12.1787 17.9802 12.4788 18.1043C12.5479 18.1329 13.1448 18.3703 13.9349 18.3703C13.9834 18.3703 14.0329 18.3693 14.083 18.3673C14.9227 18.3355 16.0919 18.0091 16.8914 16.6356C17.0548 16.3549 16.9596 15.9947 16.6787 15.8313C16.3981 15.6678 16.0379 15.7631 15.8744 16.0439Z" fill="#82C91E"/>
<path d="M20.1337 19.4938C19.9947 19.2866 19.7347 19.1873 19.4921 19.2528C19.2575 19.3157 19.0838 19.5215 19.0591 19.7629C19.0341 20.0069 19.1717 20.2479 19.393 20.3521C19.6088 20.4535 19.8721 20.4139 20.0462 20.25C20.2545 20.0543 20.2921 19.7304 20.1337 19.4938Z" fill="#82C91E"/>
<path d="M13.0187 2.56973C13.1121 2.79586 13.3458 2.94418 13.59 2.93251C13.8292 2.92083 14.0416 2.76039 14.1185 2.53379C14.1965 2.30468 14.1221 2.04422 13.9351 1.89041C13.7376 1.7279 13.4483 1.71325 13.2357 1.85562C13.0056 2.00965 12.9127 2.31315 13.0187 2.56973Z" fill="#82C91E"/>
</g>
<defs>
<clipPath id="clip0">
<rect width="30" height="30" fill="white"/>
</clipPath>
</defs>
</svg>
