<svg width="30" height="30" viewBox="0 0 30 30" fill="none" xmlns="http://www.w3.org/2000/svg">
<path d="M26.1791 21.3323L18.2702 19.033V18.3551H20.3031C22.0089 18.3551 23.3967 16.9674 23.3967 15.2616V8.39684C23.3967 3.76676 19.6299 0 14.9998 0C10.3698 0 6.60301 3.76676 6.60301 8.39684V15.2616C6.60301 16.9675 7.99074 18.3552 9.69658 18.3552H11.7295V19.0331L3.81547 21.3339C2.62795 21.6946 1.83008 22.7709 1.83008 24.012V29.9634H2.71396V24.012C2.71396 23.1628 3.25988 22.4264 4.0673 22.1811L8.90111 20.7758V26.0449H11.3874L14.9998 30L18.6124 26.0449H21.0986V20.7757L25.9273 22.1796C26.7398 22.4264 27.2857 23.1628 27.2857 24.012V29.9634H28.1696V24.012C28.1696 22.7709 27.3717 21.6946 26.1791 21.3323ZM16.4554 16.8269C16.4464 16.8297 16.4373 16.8325 16.4283 16.8353C16.3626 16.8555 16.2962 16.8744 16.2293 16.8919C16.2219 16.8938 16.2146 16.8959 16.2071 16.8979C16.1364 16.916 16.0651 16.9323 15.9934 16.9473C15.9775 16.9506 15.9617 16.9535 15.9458 16.9566C15.8892 16.9678 15.8322 16.978 15.7749 16.9872C15.7556 16.9903 15.7364 16.9936 15.7171 16.9964C15.6467 17.0068 15.576 17.0161 15.5047 17.0235C15.4923 17.0248 15.4797 17.0256 15.4671 17.0268C15.4058 17.0327 15.3441 17.0373 15.2823 17.0408C15.262 17.042 15.2417 17.0431 15.2213 17.044C15.1478 17.0473 15.074 17.0496 14.9997 17.0496C14.9254 17.0496 14.8517 17.0473 14.7781 17.044C14.7578 17.043 14.7375 17.0419 14.7172 17.0408C14.6553 17.0372 14.5937 17.0326 14.5324 17.0268C14.5198 17.0255 14.5073 17.0248 14.4947 17.0235C14.4234 17.0161 14.3527 17.0068 14.2824 16.9964C14.263 16.9935 14.2438 16.9903 14.2245 16.9872C14.1673 16.978 14.1103 16.9678 14.0537 16.9566C14.0378 16.9535 14.0219 16.9506 14.0061 16.9473C13.9343 16.9324 13.8629 16.916 13.7923 16.8979C13.7849 16.896 13.7776 16.8939 13.7702 16.8919C13.7033 16.8744 13.6369 16.8554 13.5712 16.8353C13.5621 16.8325 13.553 16.8298 13.544 16.8269C11.5724 16.2068 10.1383 14.362 10.1383 12.1884V9.18328C10.1383 7.5559 11.3549 6.20742 12.9264 5.99959C13.1664 9.01377 15.6961 11.393 18.7709 11.393H19.861V12.1884C19.8612 14.362 18.4271 16.2068 16.4554 16.8269ZM9.69658 17.4713C8.47813 17.4713 7.48689 16.4801 7.48689 15.2616V8.39684C7.48689 4.25414 10.8571 0.883887 14.9998 0.883887C19.1425 0.883887 22.5128 4.25414 22.5128 8.39684V15.2616C22.5128 16.4801 21.5216 17.4713 20.3031 17.4713H18.2702V16.9092C19.7646 15.8708 20.745 14.1421 20.745 12.1884V10.5091H18.7711C16.0255 10.5091 13.7919 8.27543 13.7919 5.5299V5.08799H13.35C11.0918 5.08799 9.25467 6.92514 9.25467 9.18328V12.1884C9.25467 14.1421 10.2351 15.8707 11.7295 16.9092V17.4713H9.69658ZM11.7771 25.161H9.785V20.5188L11.8842 19.9085L14.0695 27.6708L11.7771 25.161ZM14.9997 27.714L12.6133 19.2371V17.4155H12.6134C12.8328 17.5158 13.0581 17.6016 13.2879 17.6732C13.2904 17.6739 13.2928 17.6747 13.2954 17.6755C13.3315 17.6867 13.3678 17.6974 13.4042 17.708C13.4168 17.7116 13.4294 17.7154 13.4421 17.7189C13.4721 17.7274 13.5022 17.7355 13.5324 17.7434C13.5517 17.7485 13.571 17.7536 13.5904 17.7585C13.616 17.765 13.6416 17.7712 13.6673 17.7773C13.6915 17.7831 13.7159 17.7887 13.7402 17.7942C13.7624 17.7992 13.7846 17.8041 13.8069 17.8088C13.8348 17.8147 13.8627 17.8203 13.8908 17.8259C13.9105 17.8297 13.9302 17.8336 13.95 17.8372C13.9807 17.8429 14.0114 17.8482 14.0422 17.8535C14.0601 17.8564 14.0779 17.8596 14.0958 17.8624C14.1285 17.8676 14.1613 17.8723 14.1942 17.877C14.2106 17.8792 14.227 17.8817 14.2435 17.8839C14.2777 17.8884 14.3121 17.8925 14.3465 17.8964C14.3621 17.8982 14.3775 17.9001 14.393 17.9018C14.428 17.9055 14.4632 17.9087 14.4984 17.9117C14.5135 17.913 14.5287 17.9145 14.5439 17.9157C14.5795 17.9186 14.6153 17.9208 14.6512 17.923C14.6659 17.9238 14.6807 17.925 14.6954 17.9258C14.7328 17.9277 14.7703 17.929 14.8078 17.9303C14.8211 17.9307 14.8343 17.9314 14.8476 17.9318C14.8981 17.9331 14.9489 17.9338 14.9998 17.9338C15.0507 17.9338 15.1014 17.9331 15.152 17.9318C15.1653 17.9314 15.1785 17.9307 15.1917 17.9303C15.2293 17.929 15.2668 17.9278 15.3041 17.9258C15.3189 17.925 15.3337 17.9238 15.3484 17.923C15.3842 17.9208 15.4201 17.9186 15.4557 17.9157C15.4709 17.9146 15.4861 17.913 15.5012 17.9117C15.5363 17.9087 15.5715 17.9055 15.6065 17.9018C15.6221 17.9002 15.6376 17.8982 15.6532 17.8964C15.6875 17.8925 15.7219 17.8884 15.7561 17.884C15.7725 17.8818 15.7889 17.8794 15.8054 17.877C15.8383 17.8724 15.8711 17.8676 15.9038 17.8624C15.9218 17.8596 15.9396 17.8565 15.9574 17.8535C15.9883 17.8483 16.019 17.843 16.0496 17.8373C16.0694 17.8337 16.0891 17.8298 16.1088 17.8259C16.1369 17.8204 16.1649 17.8148 16.1928 17.8088C16.215 17.8041 16.2372 17.7993 16.2594 17.7943C16.2838 17.7888 16.3081 17.7832 16.3323 17.7773C16.358 17.7712 16.3837 17.765 16.4093 17.7585C16.4286 17.7537 16.4479 17.7486 16.4672 17.7435C16.4974 17.7355 16.5275 17.7275 16.5576 17.719C16.5702 17.7154 16.5828 17.7117 16.5954 17.7081C16.6319 17.6975 16.6683 17.6868 16.7045 17.6756C16.7067 17.6749 16.709 17.6742 16.7113 17.6735C16.9412 17.6018 17.1667 17.516 17.3862 17.4156V19.2371L14.9997 27.714ZM20.2147 25.161H18.2226L15.9302 27.6708L18.1155 19.9085L20.2147 20.5188V25.161Z" fill="#82C91E"/>
<path d="M6.83872 26.4868H5.95483V29.9634H6.83872V26.4868Z" fill="#82C91E"/>
<path d="M24.045 26.4868H23.1611V29.9634H24.045V26.4868Z" fill="#82C91E"/>
</svg>
