<svg width="30" height="30" viewBox="0 0 30 30" fill="none" xmlns="http://www.w3.org/2000/svg">
<g clip-path="url(#clip0)">
<path d="M2.34401 29.9997C2.68356 29.9997 3.02369 29.9246 3.33101 29.7823C4.06207 29.5614 11.7151 27.1694 13.201 23.4187C14.1508 21.0209 13.5166 17.8818 12.7588 15.5525L13.7573 14.5541C14.4425 13.8689 15.5575 13.8689 16.2428 14.5542L17.2412 15.5524C16.4835 17.8817 15.8493 21.0208 16.799 23.4187C18.285 27.1693 25.938 29.5614 26.669 29.7822C26.9763 29.9246 27.3165 29.9996 27.656 29.9996C29.0195 29.9996 30.0776 28.8395 29.9956 27.5207C29.9677 26.7607 29.8569 24.0924 29.5793 21.083C29.5496 20.7607 29.2645 20.5234 28.942 20.5534C28.6198 20.5831 28.3827 20.8684 28.4124 21.1906C28.7495 24.844 28.8091 27.3673 28.8258 27.5901C28.8692 28.2444 28.3383 28.8277 27.6561 28.8277C27.3267 28.8277 27.164 28.7068 27.0467 28.672C24.3722 27.8788 18.9334 25.6241 17.8885 22.9871C17.1147 21.0335 17.6326 18.3447 18.1782 16.4891L19.2732 17.5839C19.502 17.8127 19.8729 17.8127 20.1019 17.5839C20.3307 17.3551 20.3307 16.9841 20.1019 16.7552L17.0714 13.7254C15.9293 12.5834 14.0709 12.5832 12.9289 13.7253L9.89836 16.7552C9.66955 16.984 9.66955 17.355 9.89836 17.5839C10.1272 17.8127 10.4981 17.8127 10.727 17.5839L11.822 16.4891C12.3676 18.3446 12.8855 21.0334 12.1117 22.987C11.5791 24.3311 9.84932 25.7348 7.10912 27.0462C4.97095 28.0696 2.97347 28.6661 2.95349 28.6719C2.83607 28.7068 2.67319 28.8277 2.34413 28.8277C1.71707 28.8277 1.14714 28.3264 1.17538 27.5717C1.22226 26.2851 1.68379 14.9107 3.44134 11.7704C5.17339 8.67623 10.0946 6.21094 11.4846 6.21094C12.4538 6.21094 13.2424 6.99948 13.2424 7.96872V8.88335C13.2424 9.66615 12.9377 10.4019 12.3844 10.9551L11.2692 12.0702H8.96978C6.87451 12.0702 5.70951 13.5209 5.10126 14.7379C4.95654 15.0273 5.0739 15.3792 5.36335 15.5239C5.65344 15.6689 6.005 15.5507 6.14943 15.2618C7.15904 13.2421 8.52196 13.2421 8.96984 13.2421H10.0973L7.75047 15.5886C6.76377 16.5753 6.20802 17.9414 6.2113 19.3363V22.9606L4.03921 25.1322C3.81041 25.361 3.81041 25.732 4.03921 25.9609C4.26808 26.1897 4.63897 26.1897 4.86789 25.9609L6.79729 24.0315L7.55483 24.789C7.78369 25.0178 8.15458 25.0178 8.3835 24.789C8.61231 24.5602 8.61231 24.1892 8.3835 23.9603L7.38274 22.9596L7.37882 21.0974L8.72674 22.4453C8.9556 22.6741 9.3265 22.6741 9.55542 22.4453C9.78422 22.2165 9.78422 21.8455 9.55542 21.6166L7.37536 19.4366L7.37513 19.3338C7.37255 18.2481 7.81141 17.1851 8.5792 16.4174L13.2134 11.7838C13.9879 11.0093 14.4144 9.97921 14.4144 8.88341V1.1721H15.5863V8.88347C15.5863 9.97927 16.0128 11.0093 16.7874 11.7839L21.4161 16.412C22.1908 17.1872 22.6174 18.2173 22.6174 19.3124V19.4446L20.4453 21.6167C20.2165 21.8455 20.2165 22.2165 20.4453 22.4454C20.6742 22.6742 21.0451 22.6742 21.274 22.4454L22.6175 21.1019V22.9602L21.6172 23.9604C21.3884 24.1892 21.3884 24.5602 21.6172 24.7891C21.8461 25.0179 22.217 25.0179 22.4459 24.7891L23.2035 24.0315L25.1328 25.9609C25.3617 26.1897 25.7326 26.1897 25.9615 25.9609C26.1903 25.7321 26.1903 25.3611 25.9615 25.1323L23.7894 22.9602C23.7894 22.304 23.7894 19.7365 23.7894 19.3124C23.7894 17.9043 23.241 16.5801 22.245 15.5834L19.9035 13.2422H21.0309C21.4788 13.2422 22.8416 13.2422 23.8513 15.2619C23.996 15.5514 24.3479 15.6687 24.6374 15.5241C24.9268 15.3793 25.0441 15.0274 24.8995 14.738C24.2912 13.521 23.1262 12.0703 21.031 12.0703H18.7309L17.6157 10.9552C17.0625 10.402 16.7578 9.66621 16.7578 8.88347V7.96884C16.7578 6.9996 17.5463 6.21106 18.5156 6.21106C20.1551 6.21106 24.955 8.90585 26.5588 11.7706C27.0038 12.5655 27.4067 13.9905 27.7563 16.0059C27.8114 16.3231 28.1132 16.5384 28.4338 16.483C28.7526 16.4277 28.9663 16.1244 28.911 15.8055C28.5333 13.6291 28.0985 12.122 27.5814 11.1982C25.7554 7.93661 20.5557 5.03921 18.5156 5.03921C17.8565 5.03921 17.2478 5.25805 16.7578 5.62672V0.58617C16.7578 0.262563 16.4954 0.000244141 16.1719 0.000244141H13.8282C13.5046 0.000244141 13.2422 0.262563 13.2422 0.58617V5.62672C12.7522 5.25805 12.1435 5.03921 11.4845 5.03921C9.44134 5.03921 4.24458 7.93626 2.4186 11.1982C0.568364 14.5042 0.0835692 25.355 0.00446919 27.5208C-0.0776191 28.8401 0.981267 29.9997 2.34401 29.9997Z" fill="#82C91E"/>
<path d="M28.7107 19.1014C29.0343 19.1014 29.2966 18.8391 29.2966 18.5155C29.2966 18.1919 29.0343 17.9296 28.7107 17.9296C28.3871 17.9296 28.1248 18.1919 28.1248 18.5155C28.1248 18.8391 28.3871 19.1014 28.7107 19.1014Z" fill="#82C91E"/>
</g>
<defs>
<clipPath id="clip0">
<rect width="30" height="30" fill="white"/>
</clipPath>
</defs>
</svg>
