<svg width="30" height="30" viewBox="0 0 30 30" fill="none" xmlns="http://www.w3.org/2000/svg">
<g clip-path="url(#clip0)">
<path d="M1.87487 22.5C1.32362 22.5 0.781119 22.3538 0.308619 22.0775C0.0111195 21.9025 -0.0888805 21.52 0.0848695 21.2213C0.259869 20.9238 0.64112 20.8238 0.94112 20.9975C1.21862 21.16 1.54987 21.25 1.87487 21.25C2.90862 21.25 3.74987 20.4088 3.74987 19.375C3.74987 18.3413 2.90862 17.5 1.87487 17.5C1.54987 17.5 1.21862 17.59 0.94112 17.7525C0.64112 17.925 0.261119 17.8263 0.0848695 17.5288C-0.0888805 17.2313 0.00986949 16.8475 0.308619 16.6725C0.781119 16.3963 1.32362 16.25 1.87487 16.25C3.59737 16.25 4.99987 17.6525 4.99987 19.375C4.99987 21.0975 3.59737 22.5 1.87487 22.5Z" fill="#82C91E"/>
<path d="M11.875 23.75C10.8412 23.75 10 22.9088 10 21.875C10 20.8412 10.8412 20 11.875 20C12.9088 20 13.75 20.8412 13.75 21.875C13.75 22.9088 12.9088 23.75 11.875 23.75ZM11.875 21.25C11.53 21.25 11.25 21.53 11.25 21.875C11.25 22.22 11.53 22.5 11.875 22.5C12.22 22.5 12.5 22.22 12.5 21.875C12.5 21.53 12.22 21.25 11.875 21.25Z" fill="#82C91E"/>
<path d="M21.875 25C20.8412 25 20 24.1588 20 23.125C20 22.0912 20.8412 21.25 21.875 21.25C22.9088 21.25 23.75 22.0912 23.75 23.125C23.75 24.1588 22.9088 25 21.875 25ZM21.875 22.5C21.53 22.5 21.25 22.78 21.25 23.125C21.25 23.47 21.53 23.75 21.875 23.75C22.22 23.75 22.5 23.47 22.5 23.125C22.5 22.78 22.22 22.5 21.875 22.5Z" fill="#82C91E"/>
<path d="M28.75 21.25C27.3712 21.25 26.25 20.1287 26.25 18.75C26.25 17.3712 27.3712 16.25 28.75 16.25C29.045 16.25 29.3212 16.3 29.595 16.4025C29.9175 16.5237 30.0812 16.8837 29.96 17.2075C29.8387 17.53 29.4762 17.6925 29.155 17.5725C28.3912 17.2875 27.5 17.915 27.5 18.75C27.5 19.585 28.39 20.2112 29.155 19.9275C29.4775 19.8087 29.8387 19.9687 29.96 20.2925C30.0812 20.6162 29.9175 20.9762 29.595 21.0975C29.3212 21.2 29.045 21.25 28.75 21.25Z" fill="#82C91E"/>
<path d="M26.875 27.5H3.125C1.4025 27.5 0 26.0975 0 24.375V13.125C0 12.0912 0.84125 11.25 1.875 11.25H6.5375C6.8825 11.25 7.1625 11.53 7.1625 11.875C7.1625 12.22 6.8825 12.5 6.5375 12.5H1.875C1.53 12.5 1.25 12.78 1.25 13.125V24.375C1.25 25.4087 2.09125 26.25 3.125 26.25H26.875C27.9088 26.25 28.75 25.4087 28.75 24.375V13.125C28.75 12.78 28.47 12.5 28.125 12.5H22.3C21.955 12.5 21.675 12.22 21.675 11.875C21.675 11.53 21.9538 11.25 22.3 11.25H28.125C29.1588 11.25 30 12.0912 30 13.125V24.375C30 26.0975 28.5975 27.5 26.875 27.5Z" fill="#82C91E"/>
<path d="M17.7875 12.5H11.05C10.705 12.5 10.425 12.22 10.425 11.875C10.425 11.53 10.7038 11.25 11.05 11.25H17.7875C18.1325 11.25 18.4125 11.53 18.4125 11.875C18.4125 12.22 18.1325 12.5 17.7875 12.5Z" fill="#82C91E"/>
<path d="M19.91 17.5C19.0625 17.5 18.2938 17.1775 17.7438 16.5913C17.3013 16.1213 16.7938 15.2575 16.885 13.8188C17.4013 5.69378 23.8425 2.67879 24.1163 2.55504C24.3625 2.44129 24.6563 2.50254 24.8388 2.70629C25.0213 2.90879 25.0513 3.20629 24.9138 3.44128C23.1163 6.50253 22.89 10.2775 22.9075 13.5675C23.0163 14.7625 22.71 15.85 22.0438 16.5788C21.5 17.1725 20.7425 17.5 19.91 17.5ZM22.8863 4.79878C21.065 6.20378 18.4413 9.04503 18.1325 13.8988C18.0825 14.6838 18.2625 15.3188 18.655 15.7363C19.2725 16.3925 20.49 16.4225 21.1213 15.735C21.5488 15.2688 21.74 14.5188 21.66 13.6263C21.6438 10.7925 21.8 7.65128 22.8863 4.79878Z" fill="#82C91E"/>
<path d="M8.66001 17.5C7.81251 17.5 7.04376 17.1775 6.49376 16.5913C6.05126 16.1213 5.54376 15.2575 5.63501 13.8188C6.15126 5.69378 12.5925 2.67879 12.8663 2.55504C13.1125 2.44129 13.405 2.50254 13.5888 2.70629C13.7713 2.90879 13.8013 3.20629 13.6638 3.44128C11.8663 6.50253 11.64 10.2775 11.6575 13.5675C11.7663 14.7625 11.46 15.85 10.7938 16.5788C10.25 17.1725 9.49251 17.5 8.66001 17.5ZM11.6363 4.79878C9.81501 6.20378 7.19126 9.04503 6.88251 13.8988C6.83251 14.6838 7.01251 15.3188 7.40501 15.7363C8.02126 16.3925 9.24001 16.4225 9.87126 15.735C10.2988 15.2688 10.49 14.5188 10.41 13.6263C10.3938 10.7925 10.55 7.65128 11.6363 4.79878Z" fill="#82C91E"/>
</g>
<defs>
<clipPath id="clip0">
<rect width="30" height="30" fill="white"/>
</clipPath>
</defs>
</svg>
