<svg width="30" height="30" viewBox="0 0 30 30" fill="none" xmlns="http://www.w3.org/2000/svg">
<path d="M18.0135 6.98094C18.0058 6.9732 17.998 6.96545 17.9903 6.96545C15.7454 5.33981 15.2577 1.55439 15.2499 1.5002C15.2112 1.15959 14.9016 0.919611 14.561 0.958317C14.2204 0.997023 13.9804 1.30667 14.0191 1.64728C14.0423 1.81759 14.5455 5.84299 17.0923 7.84021C17.0149 8.11889 16.7208 8.66077 16.6124 8.8543C16.5272 9.00912 16.4576 9.13298 16.4111 9.23361C16.4034 9.2491 16.3956 9.26458 16.3956 9.27232C16.2718 9.62067 16.1557 9.96902 16.0395 10.3096C15.6293 11.5405 15.2422 12.6939 14.5378 13.7235C13.6243 15.0163 12.5638 16.1542 11.7045 16.758C11.1316 17.1528 10.4969 17.4392 9.83113 17.7334C9.21958 18.0121 8.57706 18.2908 7.97325 18.6778C7.64812 18.8868 7.33848 19.1191 7.04431 19.3668C6.45599 19.8467 5.89862 20.2957 5.20966 20.3654C5.09354 20.3731 4.98517 20.3886 4.87679 20.3964C4.17234 20.4583 3.43694 20.5202 2.65508 20.9769C-0.0852908 22.5949 -0.0233614 26.3183 0.00760324 28.1066C0.0153444 28.4472 0.286285 28.7181 0.626896 28.7181H0.634637C0.975248 28.7104 1.24619 28.4317 1.24619 28.0911V28.0833C1.192 25.5829 1.40875 23.129 3.26663 22.0375C3.80077 21.7278 4.31943 21.6814 4.96968 21.6272C5.0858 21.6195 5.20192 21.604 5.31804 21.5962C6.37083 21.4956 7.12947 20.8763 7.81069 20.3344C8.06615 20.1177 8.33709 19.9164 8.62351 19.7306C9.15765 19.39 9.72275 19.1346 10.3266 18.8714C11.0155 18.5617 11.7355 18.2443 12.4012 17.7799C13.8101 16.789 15.0642 15.1169 15.5441 14.4357C16.3492 13.259 16.7904 11.9585 17.2085 10.7044C17.3168 10.3793 17.4329 10.0464 17.5491 9.71357C17.58 9.65938 17.6342 9.551 17.6961 9.45037C18.1374 8.65303 18.7412 7.56152 18.0135 6.98094Z" fill="#82C91E"/>
<path d="M28.5723 8.99365C27.295 6.62486 25.2513 5.19274 22.6658 4.85213C22.658 4.85213 22.6503 4.85213 22.6348 4.85213C22.48 4.83665 22.3329 4.83665 22.1936 4.83665C21.9072 4.82891 21.6439 4.82891 21.4891 4.73601C21.4814 4.73601 21.4814 4.72827 21.4736 4.72827C20.9782 4.44959 19.0274 2.2124 18.9191 0.625459C18.8958 0.284848 18.6017 0.0293898 18.2611 0.0526132C17.9205 0.0758367 17.665 0.370001 17.6882 0.710612C17.8198 2.76976 20.0028 5.3166 20.8621 5.81203C21.2956 6.06749 21.7601 6.07523 22.1781 6.08297C22.3019 6.08297 22.4181 6.08297 22.5264 6.09846C24.7249 6.38488 26.3893 7.56928 27.4808 9.6052C28.3865 11.3083 28.8432 13.53 28.7581 15.8755C28.5181 21.7898 25.5919 26.0784 20.5137 27.9595C19.0739 28.5014 14.0654 29.5929 10.0322 27.5028C10.0322 27.5028 10.0245 27.5028 10.0245 27.495C9.28133 27.1234 8.6001 26.5041 7.85695 25.5365L7.84921 25.521C7.26863 24.7392 6.47903 23.6631 4.92305 24.2747C3.19678 24.9249 3.19678 27.4253 3.19678 28.4859C3.19678 28.8265 3.47546 29.1052 3.81607 29.1052C4.15668 29.1052 4.43536 28.8265 4.43536 28.4859C4.43536 27.7427 4.43536 25.7842 5.3643 25.4281H5.37204C5.98359 25.1881 6.21583 25.3817 6.85834 26.2487L6.87383 26.2642L6.88157 26.2719C7.73309 27.3944 8.5614 28.1298 9.47485 28.5865C11.2244 29.4922 13.268 29.949 15.5439 29.949C15.8613 29.949 16.1787 29.9412 16.5038 29.9257C18.5939 29.8096 20.2892 29.3529 20.9472 29.0974C23.7495 28.0601 25.9558 26.3571 27.5195 24.027C29.029 21.7743 29.8651 19.0339 29.9889 15.8988C30.0818 13.3364 29.5786 10.8902 28.5723 8.99365Z" fill="#82C91E"/>
<path d="M26.7147 14.9001C26.6141 14.6679 26.2657 13.9944 25.5922 13.9015C25.5845 13.9015 25.5768 13.9015 25.569 13.9015C25.2362 13.8706 24.5936 13.9557 24.044 14.9234C22.7512 16.9128 20.754 17.9889 19.2987 18.5462C16.9918 19.4442 14.654 19.599 12.1768 19.7538C11.542 19.7925 10.7989 19.8699 10.0867 20.1564C8.96423 20.5821 8.17463 21.4337 7.92692 22.4942C7.6792 23.5547 7.99659 24.6695 8.80941 25.5597C9.35903 26.148 10.1409 26.6202 11.1937 27.0073C12.471 27.4718 13.8257 27.7117 15.1881 27.704C16.179 27.704 17.1699 27.5801 18.1375 27.3479C20.3205 26.8215 22.4184 25.6526 24.1988 23.965C25.5458 22.6645 26.4283 21.333 26.9005 19.8854C27.5043 18.2056 27.4346 16.3942 26.7147 14.9001ZM25.7238 19.4752C25.7238 19.4829 25.7161 19.4906 25.7161 19.4906C25.3058 20.7447 24.5317 21.9136 23.3318 23.067C21.7139 24.6075 19.8096 25.6681 17.8356 26.148C15.7068 26.6589 13.5547 26.5583 11.6117 25.8461C10.7602 25.5287 10.1177 25.1494 9.71513 24.7159C9.18873 24.1431 8.97197 23.4386 9.1268 22.7806C9.28162 22.1226 9.79254 21.5885 10.5279 21.3098C10.5357 21.3098 10.5357 21.3098 10.5434 21.3021C11.1008 21.0776 11.7201 21.0156 12.2542 20.9847C14.7082 20.8299 17.255 20.6673 19.7322 19.6996C22.6816 18.5772 24.2685 16.8432 25.0813 15.5814C25.0891 15.5736 25.0968 15.5581 25.1046 15.5426C25.1742 15.3956 25.2826 15.264 25.4065 15.1556C25.4761 15.233 25.5303 15.3182 25.569 15.411C25.569 15.4188 25.5768 15.4265 25.5845 15.4343C26.1651 16.6341 26.2193 18.105 25.7238 19.4752Z" fill="#82C91E"/>
</svg>
