<svg width="30" height="30" viewBox="0 0 30 30" fill="none" xmlns="http://www.w3.org/2000/svg">
<path d="M11.8706 12.6478C10.1549 12.0346 8.27743 12.07 6.58383 12.7474C4.8903 13.4248 3.50631 14.6941 2.68682 16.3213C1.8753 17.9327 1.67122 19.7801 2.11202 21.5232C2.16235 21.7223 2.34129 21.855 2.53776 21.855C2.57338 21.855 2.60971 21.8506 2.64581 21.8415C2.88112 21.7819 3.02362 21.543 2.96409 21.3077C2.86553 20.9179 2.80454 20.5262 2.77852 20.1364H7.56832C7.61373 20.3219 7.6868 20.4966 7.7836 20.6555L4.39647 24.0426C4.10467 23.7093 3.84317 23.3424 3.61864 22.944C3.49946 22.7326 3.23133 22.6579 3.01999 22.777C2.80858 22.8962 2.73381 23.1642 2.85293 23.3756C3.73582 24.9418 5.15766 26.1388 6.85664 26.7461C7.66963 27.0366 8.51901 27.1816 9.36786 27.1816C10.3103 27.1816 11.2524 27.0029 12.1434 26.6465C13.837 25.9691 15.221 24.6998 16.0405 23.0726C16.852 21.4612 17.0561 19.6138 16.6153 17.8707C16.5557 17.6354 16.3167 17.4928 16.0815 17.5525C15.8462 17.612 15.7037 17.8509 15.7632 18.0863C15.8617 18.476 15.9227 18.8678 15.9488 19.2575H11.159C11.1136 19.072 11.0405 18.8974 10.9437 18.7384L14.3308 15.3513C14.6226 15.6847 14.8841 16.0515 15.1086 16.4499C15.2278 16.6613 15.4958 16.736 15.7073 16.617C15.9187 16.4978 15.9935 16.2298 15.8743 16.0183C14.9914 14.452 13.5696 13.2551 11.8706 12.6478ZM13.7087 14.7304L10.3222 18.1169C10.1633 18.0202 9.9886 17.947 9.80309 17.9016V13.1109C11.2382 13.2111 12.6172 13.778 13.7087 14.7304ZM14.3312 24.0429L10.9437 20.6555C11.0405 20.4966 11.1136 20.3219 11.159 20.1364H15.9481C15.8498 21.5841 15.2738 22.959 14.3312 24.0429ZM9.3637 20.6665C8.82903 20.6665 8.39409 20.2316 8.39409 19.6969C8.39409 19.1623 8.82903 18.7273 9.3637 18.7273C9.89836 18.7273 10.3333 19.1623 10.3333 19.6969C10.3333 20.2316 9.89836 20.6665 9.3637 20.6665ZM4.39623 15.351L7.78366 18.7384C7.68692 18.8973 7.61379 19.072 7.56838 19.2575H2.77922C2.8776 17.8098 3.45358 16.4349 4.39623 15.351ZM6.91032 13.5635C7.56786 13.3004 8.24708 13.1517 8.92424 13.1084V17.9016C8.73874 17.947 8.56401 18.0201 8.4051 18.1169L5.01581 14.7276C5.56454 14.2448 6.20069 13.8473 6.91032 13.5635ZM5.01856 24.6635L8.4051 21.277C8.56401 21.3738 8.73874 21.4469 8.92424 21.4923V26.283C7.48905 26.1829 6.11016 25.616 5.01856 24.6635ZM11.8171 25.8305C11.1595 26.0935 10.4803 26.2422 9.80309 26.2856V21.4922C9.98854 21.4468 10.1633 21.3738 10.3222 21.277L13.7115 24.6663C13.1629 25.1491 12.5267 25.5466 11.8171 25.8305Z" fill="#82C91E"/>
<path d="M29.0909 23.9545H26.2424V16.4091V15.9394C26.2424 14.9201 25.4132 14.0909 24.3939 14.0909H23.894V10.7728C23.894 8.97652 22.4326 7.51514 20.6364 7.51514H20.6061V7.4849C20.6061 6.46561 19.7769 5.63639 18.7576 5.63639H9.80314V4.19703C9.80314 2.91875 8.76316 1.87883 7.48488 1.87883H6.51527V1.84859C6.51527 1.34727 6.10746 0.939453 5.60613 0.939453H2.78795C2.02764 0.939453 1.40912 1.55803 1.40912 2.31828C1.40912 3.07854 2.0277 3.69711 2.78795 3.69711H5.60613C6.10746 3.69711 6.51527 3.2893 6.51527 2.78797V2.75773H7.48494C8.27859 2.75773 8.92424 3.40344 8.92424 4.19703V10.3439C3.96434 10.5743 0 14.6812 0 19.697C0 24.8601 4.20053 29.0606 9.36369 29.0606C14.5268 29.0606 18.7273 24.8601 18.7273 19.697C18.7273 18.7041 18.5715 17.7472 18.2838 16.8485H21.5757C21.8184 16.8485 22.0152 16.6518 22.0152 16.4091C22.0152 16.1664 21.8184 15.9696 21.5757 15.9696H17.9526C17.8025 15.6251 17.6324 15.2913 17.4435 14.9698H23.015V23.5197C21.6858 23.7311 20.6665 24.885 20.6665 26.2727C20.6665 27.81 21.9172 29.0606 23.4545 29.0606C24.8422 29.0606 25.9961 28.0413 26.2075 26.7122H29.0908C29.5921 26.7122 29.9999 26.3043 29.9999 25.803V24.8636C30 24.3623 29.5922 23.9545 29.0909 23.9545ZM5.63631 2.78797C5.63631 2.80467 5.62277 2.8182 5.60607 2.8182H2.78795C2.51227 2.8182 2.28803 2.59391 2.28803 2.31828C2.28803 2.04266 2.51232 1.81836 2.78795 1.81836H5.60613C5.62283 1.81836 5.63637 1.83189 5.63637 1.84859V2.78797H5.63631ZM23.894 16.8485H25.3636V24.2437C24.9655 23.8689 24.4579 23.6094 23.894 23.5197V16.8485ZM18.7576 6.51523C19.2922 6.51523 19.7272 6.95018 19.7272 7.48484V7.51508H9.80314V6.51523H18.7576ZM9.36369 28.1817C4.68516 28.1817 0.878906 24.3755 0.878906 19.697C0.878906 15.0185 4.68516 11.2122 9.36369 11.2122C14.0422 11.2122 17.8484 15.0185 17.8484 19.697C17.8484 24.3755 14.0422 28.1817 9.36369 28.1817ZM16.8591 14.0909C15.2319 11.9207 12.6857 10.4778 9.80314 10.3439V8.39404H20.6364C21.948 8.39404 23.0151 9.46115 23.0151 10.7728V14.0909H16.8591ZM24.3939 14.9698C24.9286 14.9698 25.3635 15.4047 25.3635 15.9394V15.9696H23.8939V14.9698H24.3939ZM23.4545 28.1817C22.4019 28.1817 21.5455 27.3253 21.5455 26.2727C21.5455 25.3713 22.1737 24.6144 23.0151 24.4153V26.2727C23.0151 26.5154 23.2119 26.7122 23.4545 26.7122C23.6972 26.7122 23.894 26.5154 23.894 26.2727V24.4153C24.7354 24.6144 25.3636 25.3713 25.3636 26.2727C25.3635 27.3253 24.5071 28.1817 23.4545 28.1817ZM29.1211 25.803C29.1211 25.8197 29.1076 25.8332 29.0909 25.8332H26.2424V24.8334H29.0909C29.1076 24.8334 29.1211 24.8469 29.1211 24.8636V25.803Z" fill="#82C91E"/>
</svg>
